# xmcd
#
# Track frame offsets:
#	150
#	44415
#	79220
#	129805
#	175360
#	225897
#	261350
#	296592
#
# Disc length: 4448 seconds
# Revision: 0
# Processed by: cddbd v1.5.2PL0 Copyright (c) Steve Scherf et al.
# Submitted via: dBpowerAMP V12.0
#
DISCID=66115e08
DTITLE=Various Artist - The Tenth Anniversary Collection Part Two 1996-2000
DYEAR=1997
DGENRE=House
TTITLE0=Nuyorican Soul - It's Alright, I Feel It!
TTITLE1=Kenlou 6 - Bangin'
TTITLE2=Masters at Work and Lilliana - Brazilian Beat
TTITLE3=Hardrive 2000 feat. Lynae - Never Forget (When You Touch Me)
TTITLE4=Monday Michiru - Sunshine After the Rain
TTITLE5=Daft Punk - Around the World
TTITLE6=Eternal - What'cha Gonna Do
TTITLE7=Rain A Lil Louis Painting - Give It Up (MAW Club Mix)
EXTD=
EXTT0=
EXTT1=
EXTT2=
EXTT3=
EXTT4=
EXTT5=
EXTT6=
EXTT7=
PLAYORDER=
